<svg width="107" height="121" viewBox="0 0 107 121" fill="none" xmlns="http://www.w3.org/2000/svg">
<path d="M54.5031 120.039C51.3407 117.557 48.2564 115.074 45.3672 112.786C47.3974 109.179 49.5448 105.727 51.3407 102.12C53.1367 98.5133 54.0737 94.596 53.9956 90.6012C51.1455 91.5708 48.4125 92.6955 45.5624 93.51C38.6129 95.4881 31.5072 95.8759 24.3624 94.9451C16.7492 93.9754 9.17495 92.7731 1.36648 91.6484C2.0302 87.4208 2.61584 83.5036 3.20147 79.5087C11.4394 80.4784 19.4041 80.1681 27.0173 76.0957C26.1584 75.4363 25.4166 74.8933 24.6748 74.3116C17.4519 68.8429 12.1812 61.7841 8.58932 53.5617C5.50497 46.4641 2.92818 39.1726 0.117127 31.9198C0.0780847 31.7647 0.0390424 31.6096 0 31.2993C3.66998 29.8643 7.37901 28.4292 11.1271 26.9554C14.4457 34.4796 18.5842 41.2282 25.846 45.6496C26.3536 42.8571 26.744 40.1034 27.4077 37.3885C28.9694 30.7563 32.0928 24.7835 35.919 19.1985C40.6041 12.4499 45.9529 6.20556 51.5359 0C54.6593 2.48222 57.7436 4.92566 60.9061 7.44667C55.9867 14.0401 52.1996 21.0601 51.9654 29.554C54.2298 28.7007 56.3381 27.8475 58.5245 27.1105C64.8884 25.0162 71.4475 24.4344 78.1238 24.7835C86.7912 25.2489 95.2634 26.839 103.736 28.5068C103.97 28.5456 104.204 28.6231 104.594 28.7395C104.009 32.618 103.384 36.5352 102.799 40.3749C98.66 40.3749 94.5996 40.181 90.5783 40.4137C86.5179 40.6464 82.6527 41.81 79.0217 43.9431C80.6615 45.2618 82.2623 46.5029 83.7849 47.7828C89.8365 52.9024 94.2873 59.3019 97.4107 66.4771C100.495 73.5359 103.033 80.8274 105.844 88.0026C105.922 88.1965 105.961 88.4292 106.039 88.7395C102.33 90.1745 98.66 91.6096 94.8729 93.0834C91.5543 85.5592 87.4158 78.8106 80.1149 74.3891C79.6855 76.9489 79.3731 79.3536 78.8265 81.7195C77.1867 89.2049 73.8291 95.9147 69.2221 101.965C64.6932 107.899 59.8519 113.562 55.1278 119.341C54.9326 119.573 54.7374 119.767 54.5031 120.039ZM68.9878 60.0388C69.0269 51.2734 61.9212 44.1758 52.9805 44.137C44.3521 44.0983 37.0902 51.2734 37.0512 59.9224C37.0122 68.7266 44.1569 75.863 53.0976 75.9405C61.8041 75.9793 68.9098 68.8429 68.9878 60.0388Z" fill="black"/>
</svg>
