<svg width="21" height="15" viewBox="0 0 21 15" fill="none" xmlns="http://www.w3.org/2000/svg">
<g clip-path="url(#clip0_641_384)">
<path d="M19.9444 13C19.9444 13 20.0444 13 19.9444 13V1.2C19.9444 1.1 19.9444 1.1 19.9444 1L13.7444 7.2L19.9444 13Z" fill="black"/>
<path d="M0.144434 0.799988C0.0444336 0.999988 0.0444336 1.09999 0.0444336 1.19999V13C0.0444336 13 0.0444336 13 0.0444336 13.1L6.34443 7.09999L0.144434 0.799988Z" fill="black"/>
<path d="M10.6444 8.6L19.1444 0C19.0444 0 18.9444 0 18.7444 0H1.24443C1.14443 0 1.14443 0 1.04443 0.1L9.64443 8.7C9.84443 8.9 10.3444 8.9 10.6444 8.6Z" fill="black"/>
<path d="M12.9444 7.99999L11.5444 9.39999C11.1444 9.79999 10.7444 9.99999 10.1444 9.99999C9.54445 9.99999 9.14445 9.79999 8.74445 9.39999L7.24445 7.89999L0.744446 14C0.944446 14.1 1.04445 14.1 1.34445 14.1H18.8444C19.0444 14.1 19.2444 14 19.4444 14L12.9444 7.99999Z" fill="black"/>
</g>
<defs>
<clipPath id="clip0_641_384">
<rect width="20" height="14.2" fill="white" transform="translate(0.0444336)"/>
</clipPath>
</defs>
</svg>
