<svg width="27" height="28" viewBox="0 0 27 28" fill="none" xmlns="http://www.w3.org/2000/svg">
<path d="M3.71509 8.00665C3.71509 8.00665 5.34398 7.91789 7.60633 8.45041C9.77819 8.98294 10.8641 9.51546 10.8641 9.51546" stroke="#FF6B6B" stroke-miterlimit="10"/>
<path d="M3.71509 12.4444C3.71509 12.4444 5.34398 12.3556 7.60633 12.8881C9.77819 13.4207 10.8641 13.9532 10.8641 13.9532" stroke="#FF6B6B" stroke-miterlimit="10"/>
<path d="M3.71509 16.882C3.71509 16.882 5.34398 16.7933 7.60633 17.3258C9.77819 17.8583 10.8641 18.3909 10.8641 18.3909" stroke="#FF6B6B" stroke-miterlimit="10"/>
<path d="M13.6692 5.07781C13.6692 5.07781 15.2076 2.94772 18.8273 1.79392C22.4471 0.640119 26.4288 1.08389 26.4288 1.08389V22.6511C26.4288 22.6511 22.3566 22.4736 18.8273 23.6274C15.2981 24.8699 13.7597 27 13.7597 27C13.7597 27 12.0403 24.8699 8.6015 23.7161C5.07223 22.4736 1 22.7398 1 22.7398V1.17264C1 1.17264 4.98174 0.728873 8.6015 1.88267C12.2213 3.03647 13.6692 5.07781 13.6692 5.07781Z" stroke="#FF6B6B" stroke-miterlimit="10"/>
<path d="M23.6235 8.00665C23.6235 8.00665 21.9946 7.91789 19.7323 8.45041C17.5604 8.98294 16.4745 9.51546 16.4745 9.51546" stroke="#FF6B6B" stroke-miterlimit="10"/>
<path d="M23.6235 12.4444C23.6235 12.4444 21.9946 12.3556 19.7323 12.8881C17.5604 13.4207 16.4745 13.9532 16.4745 13.9532" stroke="#FF6B6B" stroke-miterlimit="10"/>
<path d="M23.6235 16.882C23.6235 16.882 21.9946 16.7933 19.7323 17.3258C17.5604 17.8583 16.4745 18.3909 16.4745 18.3909" stroke="#FF6B6B" stroke-miterlimit="10"/>
<path d="M13.6693 5.07779V27" stroke="#FF6B6B" stroke-miterlimit="10"/>
</svg>
