<svg width="18" height="18" viewBox="0 0 18 18" fill="none" xmlns="http://www.w3.org/2000/svg">
<path d="M12.9444 12.3C12.7444 12.1 12.4444 12 12.1444 12C11.8444 12 11.5444 12.1 11.3444 12.3L10.0444 13.7L9.64442 13.5C8.84442 13.1 7.74442 12.5 6.64442 11.3C5.44442 10.1 4.84442 9.10001 4.44442 8.30001L4.24442 7.90001L5.54442 6.60001C6.04442 6.10001 6.04442 5.40001 5.64442 5.00001L3.14442 2.50001C2.94442 2.30001 2.64442 2.20001 2.34442 2.20001C2.04442 2.20001 1.74442 2.30001 1.54442 2.50001L0.944417 3.10001L0.844417 3.20001C0.644417 3.50001 0.444417 3.80001 0.244417 4.20001C0.244417 4.50001 0.144417 4.90001 0.0444173 5.20001C-0.255583 7.90001 0.944417 10.3 4.24442 13.6C8.14442 17.5 11.4444 17.8 12.3444 17.8C12.5444 17.8 12.5444 17.8 12.6444 17.8C12.9444 17.8 13.3444 17.7 13.6444 17.6C14.0444 17.5 14.3444 17.3 14.6444 17.1L14.7444 17L15.3444 16.5C15.7444 16.1 15.8444 15.4 15.3444 14.9L12.9444 12.3Z" fill="black"/>
<path d="M12.3444 9.50001L12.2444 9.00001C12.0444 8.20001 11.6444 7.50001 11.0444 6.90001C10.5444 6.40001 9.84445 6.00001 9.04445 5.80001L8.74445 5.70001" stroke="black" stroke-miterlimit="10" stroke-linejoin="round"/>
<path d="M14.7444 9.70001V9.30001C14.5444 7.70001 13.9444 6.30001 12.7444 5.20001C11.7444 4.20001 10.4444 3.50001 9.04441 3.30001L8.64441 3.20001" stroke="black" stroke-miterlimit="10" stroke-linejoin="round"/>
<path d="M17.4444 9.6V9.2C17.2444 6.9 16.3444 4.8 14.7444 3.2C13.0444 1.6 10.8444 0.7 8.54443 0.5H8.04443" stroke="black" stroke-miterlimit="10" stroke-linejoin="round"/>
</svg>
