<svg width="70" height="49" viewBox="0 0 70 49" fill="none" xmlns="http://www.w3.org/2000/svg">
<path d="M42.4371 10.6199L24.327 28.8976" stroke="black"/>
<path d="M22.9739 17.2164C27.3777 17.2164 30.9477 13.5862 30.9477 9.10819C30.9477 4.63016 27.3777 1 22.9739 1C18.57 1 15 4.63016 15 9.10819C15 13.5862 18.57 17.2164 22.9739 17.2164Z" stroke="black"/>
<path d="M20.1716 11.8284C18.6095 10.2663 18.6095 7.73366 20.1716 6.17157C21.7337 4.60947 24.2663 4.60947 25.8284 6.17157" stroke="black"/>
<mask id="path-4-inside-1_641_602" fill="white">
<path d="M33.8536 5H70V44H0V5H12.4085"/>
</mask>
<path d="M70 5H71V4H70V5ZM70 44V45H71V44H70ZM0 44H-1V45H0V44ZM0 5V4H-1V5H0ZM33.8536 6H70V4H33.8536V6ZM69 5V44H71V5H69ZM70 43H0V45H70V43ZM1 44V5H-1V44H1ZM0 6H12.4085V4H0V6Z" fill="black" mask="url(#path-4-inside-1_641_602)"/>
<path d="M18 48H52" stroke="black"/>
<path d="M43.9739 20.0001C39.57 20.0001 36 23.6302 36 28.1082C36 32.5863 39.57 36.2164 43.9739 36.2164C48.3777 36.2164 51.9477 32.5863 51.9477 28.1082C51.9477 23.6302 48.3777 20.0001 43.9739 20.0001Z" stroke="black"/>
<path d="M46.7761 25.388C48.3382 26.9501 48.3382 29.4828 46.7762 31.0449C45.2141 32.607 42.6814 32.607 41.1193 31.0449" stroke="black"/>
</svg>
