<svg width="70" height="62" viewBox="0 0 70 62" fill="none" xmlns="http://www.w3.org/2000/svg">
<path d="M37.2346 3.39254L46.63 12.788L43.5312 15.8868L37.6049 9.96058L36.7514 9.10703L36.7514 10.3141L36.7514 23.8961L32.3469 23.8961L32.3469 10.3141L32.3469 9.10703L31.4934 9.96058L25.5671 15.8868L22.4683 12.788L31.8638 3.39254L37.2346 3.39254Z" stroke="black"/>
<mask id="path-2-inside-1_641_610" fill="white">
<path d="M49 18H70V57H0V18H20.5"/>
</mask>
<path d="M70 18H71V17H70V18ZM70 57V58H71V57H70ZM0 57H-1V58H0V57ZM0 18V17H-1V18H0ZM49 19H70V17H49V19ZM69 18V57H71V18H69ZM70 56H0V58H70V56ZM1 57V18H-1V57H1ZM0 19H20.5V17H0V19Z" fill="black" mask="url(#path-2-inside-1_641_610)"/>
<path d="M18 61H52" stroke="black"/>
<path d="M28 48V30L42 39L28 48Z" stroke="black"/>
</svg>
