<svg width="20" height="17" viewBox="0 0 20 17" fill="none" xmlns="http://www.w3.org/2000/svg">
<g clip-path="url(#clip0_641_382)">
<path fill-rule="evenodd" clip-rule="evenodd" d="M0.844451 6.59999L17.8444 -5.22565e-06C17.8444 -5.22565e-06 19.2444 -0.200005 18.9445 1.09999C18.7444 2.49999 16.0445 15.3 16.0445 15.3C16.0445 15.3 15.5445 16.6 14.3445 15.7C13.1445 14.8 10.1445 12.5 10.1445 12.5L8.34445 14.3C8.34445 14.3 7.94445 14.7 7.64445 14.9C7.44445 15.1 7.04445 15.1 7.04445 15.1L7.44445 10.5L15.6445 3.19999C15.6445 3.19999 15.7445 2.69999 15.2445 2.89999C14.8445 3.09999 5.04445 9.39999 5.04445 9.39999L0.544451 8C0.544451 8 -0.755549 7.29999 0.844451 6.59999Z" fill="black"/>
</g>
<defs>
<clipPath id="clip0_641_382">
<rect width="19.1" height="16.1" fill="white" transform="translate(0.0444336)"/>
</clipPath>
</defs>
</svg>
