<svg width="81" height="44" viewBox="0 0 81 44" fill="none" xmlns="http://www.w3.org/2000/svg">
<path d="M1 7.09161H2.73856V13.1308H6.49019V14.5034H1V7.09161Z" fill="black"/>
<path d="M14.451 12.9477H10.9739L10.3333 14.5033H8.59477L11.8889 7.09152H13.5359L16.8301 14.5033H15L14.451 12.9477ZM13.902 11.6667L12.7124 8.83008L11.5229 11.6667H13.902Z" fill="black"/>
<path d="M21.1307 14.1373C20.4902 13.7712 20.0327 13.3137 19.6667 12.7647C19.3007 12.2157 19.1176 11.4837 19.1176 10.7516C19.1176 10.0196 19.3007 9.37908 19.6667 8.73856C20.0327 8.18954 20.4902 7.73203 21.1307 7.36601C21.7712 7.18301 22.5033 7 23.2353 7C23.8758 7 24.4248 7.0915 24.9739 7.36601C25.5229 7.54902 25.8889 7.91503 26.2549 8.37255L25.1569 9.37908C24.6993 8.83006 24.0588 8.55556 23.3268 8.55556C22.8693 8.55556 22.5033 8.64706 22.1373 8.83007C21.7712 9.01307 21.4967 9.28758 21.3137 9.65359C21.1307 10.0196 21.0392 10.3856 21.0392 10.8431C21.0392 11.3007 21.1307 11.6667 21.3137 12.0327C21.4967 12.3987 21.7712 12.6732 22.1373 12.8562C22.5033 13.0392 22.8693 13.1307 23.3268 13.1307C24.0588 13.1307 24.6993 12.8562 25.1569 12.2157L26.2549 13.2222C25.8889 13.6797 25.4314 13.9542 24.9739 14.2288C24.4248 14.4118 23.8758 14.5948 23.2353 14.5948C22.5033 14.6863 21.7712 14.5033 21.1307 14.1373Z" fill="black"/>
<path d="M34.2157 14.5033L32.8431 12.4902H32.7516H31.2876V14.5948H29.549V7.09152H32.7516C33.3921 7.09152 33.9412 7.18303 34.4902 7.45754C34.9477 7.64054 35.3137 8.00655 35.5882 8.37257C35.8627 8.73858 35.9542 9.2876 35.9542 9.83662C35.9542 10.3856 35.8627 10.8432 35.5882 11.3007C35.3137 11.6667 34.9477 12.0327 34.4902 12.2157L36.1372 14.5948H34.2157V14.5033ZM33.8497 8.83008C33.5752 8.64708 33.2091 8.46407 32.6601 8.46407H31.2876V11.0262H32.6601C33.2091 11.0262 33.5752 10.9347 33.8497 10.6601C34.1242 10.4771 34.2157 10.1111 34.2157 9.74512C34.2157 9.3791 34.1242 9.10459 33.8497 8.83008Z" fill="black"/>
<path d="M39.4314 7.09152H41.1699V14.5033H39.4314V7.09152Z" fill="black"/>
<path d="M51.7843 14.5033V10.0196L49.5882 13.6798H48.8562L46.6601 10.1111V14.4118H45.0131V7.09152H46.3856L49.1307 11.6667L51.8758 7.09152H53.2484V14.5033H51.7843Z" fill="black"/>
<path d="M62.1242 12.9477H58.647L58.0065 14.5033H56.268L59.5621 7.09152H61.2091L64.5033 14.5033H62.6732L62.1242 12.9477ZM61.5751 11.6667L60.3856 8.83008L59.1961 11.6667H61.5751Z" fill="black"/>
<path d="M68.1634 14.4118C67.6144 14.2288 67.1568 14.0458 66.8823 13.7712L67.4314 12.4902C67.7059 12.7647 68.1634 12.9477 68.5294 13.0392C68.9869 13.2222 69.4444 13.2222 69.8104 13.2222C70.268 13.2222 70.634 13.1307 70.9085 13.0392C71.183 12.8562 71.2745 12.6732 71.2745 12.4902C71.2745 12.3072 71.183 12.1242 71.0915 12.0327C70.9085 11.9412 70.817 11.8497 70.5425 11.7582C70.3595 11.6667 69.9934 11.5752 69.6274 11.4837C69.0784 11.3922 68.6209 11.2091 68.2549 11.1176C67.8889 11.0261 67.6144 10.7516 67.3399 10.4771C67.0653 10.2026 66.9738 9.7451 66.9738 9.28758C66.9738 8.83006 67.0653 8.46405 67.3399 8.09804C67.6144 7.73203 67.8889 7.45752 68.3464 7.27451C68.8954 7.0915 69.4444 7 70.085 7C70.5425 7 71 7.0915 71.4575 7.18301C71.915 7.27451 72.281 7.45752 72.647 7.64052L72.098 8.92157C71.4575 8.55556 70.7255 8.37255 70.085 8.37255C69.6274 8.37255 69.2614 8.46405 68.9869 8.64706C68.8039 8.73856 68.7124 8.92157 68.7124 9.19608C68.7124 9.47059 68.8039 9.65359 69.0784 9.7451C69.3529 9.8366 69.7189 10.0196 70.268 10.1111C70.817 10.2026 71.2745 10.3856 71.6405 10.4771C72.0065 10.5686 72.281 10.8431 72.5555 11.1176C72.83 11.3922 72.9216 11.7582 72.9216 12.3072C72.9216 12.7647 72.83 13.1307 72.5555 13.4967C72.281 13.8627 72.0065 14.1373 71.4575 14.3203C71 14.5033 70.451 14.5948 69.7189 14.5948C69.2614 14.6863 68.7124 14.5948 68.1634 14.4118Z" fill="black"/>
<path d="M16.0192 35H12L19.5817 18H23.5096L31 35H26.8894L25.4279 31.3441H20.6779L21.9567 28.328H24.2404L21.5 21.8387L16.0192 35Z" fill="black"/>
<path d="M10.5887 25.586H4.96454V21.1075H12.617L14 18H1V35H4.96454V28.7849H9.11347L10.5887 25.586Z" fill="black"/>
<path d="M41.0482 27.0484C42.2229 27.0484 43.1265 26.7742 43.759 26.2258C44.3916 25.6774 44.6627 24.9462 44.6627 24.0323C44.6627 23.1183 44.3916 22.3871 43.759 21.8387C43.1265 21.2903 42.2229 21.1075 41.0482 21.1075H37.8855V34.9086H34V18H41.3193C42.7651 18 44.1205 18.2742 45.2048 18.7312C46.2892 19.1882 47.1024 19.9194 47.7349 20.8333C48.3675 21.7473 48.6386 22.8441 48.6386 24.1237C48.6386 25.4032 48.3675 26.5 47.7349 27.414C47.1024 28.328 46.2892 29.0591 45.2048 29.5161L49 35H44.8434L39.4217 27.1398L41.0482 27.0484Z" fill="black"/>
<path d="M56.634 17.9804H53.3399V35H57.0915V24.9346L62.0327 33.1699H63.7712L64.7778 31.5229L56.634 17.9804Z" fill="black"/>
<path d="M72.464 17.9804H69.2614L64.4118 26.1242L66.2418 29.1438L68.8039 24.7516L68.8954 35H72.5555L72.464 17.9804Z" fill="black"/>
</svg>
